<svg xmlns="http://www.w3.org/2000/svg" viewBox="0 0 480 240"><rect width="480" height="240" fill="#f5eae0"/><defs><g id="cloud"><circle cx="0" cy="0" r="4"/><circle cx="24" cy="-14" r="4"/><circle cx="48" cy="-28" r="4"/><circle cx="72" cy="-14" r="4"/><circle cx="96" cy="0" r="4"/><circle cx="0" cy="30" r="4"/><circle cx="24" cy="16" r="4"/><circle cx="48" cy="2" r="4"/><circle cx="72" cy="16" r="4"/><circle cx="96" cy="30" r="4"/><circle cx="0" cy="60" r="4"/><circle cx="24" cy="46" r="4"/><circle cx="48" cy="32" r="4"/><circle cx="72" cy="46" r="4"/><circle cx="96" cy="60" r="4"/><circle cx="24" cy="76" r="4"/><circle cx="48" cy="62" r="4"/><circle cx="72" cy="76" r="4"/></g></defs><use href="#cloud" x="47" y="92" fill="#974b34" transform="rotate(-10 95 122)"/><use href="#cloud" x="307" y="92" fill="#355c80"/><use href="#cloud" x="312" y="87" fill="#974b34" opacity=".45"/><path d="M186 122h81m-14-14 14 14-14 14" fill="none" stroke="#203b3b" stroke-width="3" stroke-linecap="round" stroke-linejoin="round"/><path d="M30 201h122m143 0h123" stroke="#bdc9c6" stroke-width="2"/></svg>
